<svg width="1024" height="1024" viewBox="0 0 1024 1024" fill="none" xmlns="http://www.w3.org/2000/svg">
<g clip-path="url(#clip0_10888_589)">
<path d="M0 0C337.92 0 675.84 0 1024 0C1024 337.92 1024 675.84 1024 1024C686.08 1024 348.16 1024 0 1024C0 686.08 0 348.16 0 0Z" fill="#2E6767"/>
<path d="M690.86 104.317C692.676 104.302 694.491 104.287 696.362 104.272C698.319 104.265 700.276 104.258 702.293 104.252C704.314 104.243 706.336 104.234 708.418 104.225C712.698 104.209 716.979 104.2 721.259 104.194C726.71 104.186 732.161 104.148 737.613 104.104C742.847 104.068 748.082 104.065 753.317 104.058C755.259 104.039 757.201 104.02 759.201 104C775.678 104.042 789.046 106.716 801.128 118.508C807.334 126.64 810.613 133.552 810.626 143.881C810.632 145.622 810.638 147.362 810.644 149.155C810.643 151.075 810.642 152.996 810.64 154.974C810.645 157.008 810.649 159.042 810.654 161.138C810.667 166.796 810.669 172.454 810.671 178.112C810.673 184.211 810.685 190.31 810.696 196.409C810.717 209.757 810.726 223.105 810.733 236.452C810.737 244.794 810.744 253.136 810.751 261.477C810.769 284.588 810.785 307.699 810.791 330.81C810.791 333.03 810.791 333.03 810.792 335.295C810.792 336.778 810.792 338.262 810.793 339.79C810.793 342.796 810.794 345.802 810.795 348.808C810.795 350.299 810.795 351.79 810.796 353.327C810.802 377.439 810.829 401.552 810.865 425.665C810.902 450.442 810.921 475.219 810.923 499.996C810.924 513.899 810.933 527.801 810.961 541.704C810.985 553.554 810.993 565.405 810.98 577.255C810.974 583.292 810.976 589.328 810.997 595.365C811.265 673.572 785.297 742.563 731.424 800.337C729.676 802.065 727.91 803.776 726.123 805.463C723.508 808.025 721.25 810.748 718.928 813.577C699.001 836.625 671.533 854.816 646.216 871.379C645.705 871.379 645.194 871.379 644.667 871.379C644.561 802.206 644.463 733.033 644.405 663.86C644.404 662.324 644.404 662.324 644.402 660.757C644.384 638.501 644.367 616.244 644.351 593.988C644.343 583.073 644.335 572.158 644.327 561.243C644.326 560.157 644.325 559.071 644.324 557.952C644.298 522.758 644.251 487.563 644.194 452.369C644.134 415.172 644.097 377.974 644.084 340.776C644.076 318.496 644.049 296.215 643.999 273.935C643.966 258.658 643.956 243.382 643.964 228.106C643.968 219.291 643.962 210.476 643.929 201.661C643.898 193.587 643.897 185.514 643.918 177.439C643.921 174.522 643.913 171.605 643.893 168.688C643.77 149.067 644.277 131.572 658.609 116.53C668.372 108.121 678.103 104.401 690.86 104.317Z" fill="#FEFEFE"/>
<path d="M474.271 293.285C476.148 293.265 478.025 293.245 479.96 293.225C481.985 293.213 484.01 293.202 486.097 293.19C487.651 293.181 487.651 293.181 489.238 293.171C494.728 293.139 500.218 293.116 505.708 293.102C511.347 293.085 516.986 293.032 522.625 292.97C526.988 292.929 531.351 292.916 535.715 292.911C538.794 292.9 541.873 292.859 544.953 292.817C556.412 292.845 564.975 294 574.959 299.756C576.493 300.522 576.493 300.522 578.057 301.305C578.057 302.327 578.057 303.35 578.057 304.403C578.994 304.788 579.93 305.174 580.895 305.571C584.787 307.808 586.153 309.765 588.417 313.601C589.384 315.203 589.384 315.203 590.371 316.838C593.517 322.743 593.741 327.454 593.739 334.041C593.742 336.041 593.745 338.041 593.748 340.103C593.744 342.335 593.739 344.568 593.735 346.801C593.735 349.163 593.737 351.525 593.739 353.887C593.742 360.394 593.736 366.901 593.728 373.408C593.721 380.418 593.724 387.429 593.725 394.439C593.726 406.591 593.721 418.743 593.712 430.895C593.7 448.465 593.695 466.035 593.694 483.605C593.69 512.108 593.68 540.612 593.665 569.116C593.651 596.81 593.64 624.503 593.633 652.197C593.633 653.903 593.633 655.609 593.632 657.367C593.63 665.926 593.628 674.486 593.626 683.045C593.61 754.085 593.583 825.125 593.548 896.165C591.339 897.158 589.128 898.148 586.916 899.137C585.07 899.964 585.07 899.964 583.186 900.808C567.839 907.469 551.491 911.039 535.166 914.367C532.795 914.857 532.795 914.857 530.376 915.356C509.749 919.393 489.239 919.653 468.301 919.604C464.06 919.596 459.819 919.604 455.577 919.614C452.865 919.613 450.153 919.611 447.441 919.608C445.551 919.612 445.551 919.612 443.622 919.617C438.083 919.594 433.122 919.347 427.793 917.853C427.616 842.703 427.479 767.554 427.397 692.404C427.388 683.533 427.378 674.662 427.367 665.791C427.365 664.025 427.363 662.258 427.361 660.439C427.328 631.839 427.267 603.238 427.195 574.638C427.123 545.294 427.08 515.95 427.064 486.606C427.054 468.497 427.02 450.389 426.957 432.281C426.916 419.865 426.904 407.449 426.914 395.033C426.919 387.869 426.911 380.705 426.87 373.54C426.832 366.978 426.83 360.416 426.856 353.854C426.86 351.483 426.85 349.112 426.826 346.741C426.662 329.795 429.204 318.961 440.67 306.243C450.429 297.059 461.047 293.407 474.271 293.285Z" fill="#FEFEFE"/>
<path d="M253.323 469.684C255.288 469.659 257.253 469.634 259.278 469.608C261.414 469.599 263.549 469.59 265.684 469.583C267.894 469.569 270.103 469.555 272.312 469.541C276.942 469.515 281.571 469.503 286.2 469.499C292.094 469.491 297.987 469.432 303.881 469.361C308.447 469.315 313.012 469.304 317.577 469.303C319.748 469.296 321.919 469.277 324.089 469.245C341.081 469.01 352.962 471.639 365.729 483.132C373.992 491.374 375.649 500.494 375.721 511.695C375.707 513.255 375.694 514.814 375.68 516.421C375.684 518.101 375.688 519.78 375.692 521.51C375.699 527.128 375.674 532.746 375.648 538.364C375.647 542.395 375.648 546.426 375.65 550.457C375.653 559.13 375.638 567.803 375.612 576.477C375.574 589.017 375.562 601.557 375.556 614.097C375.546 634.445 375.515 654.792 375.471 675.139C375.429 694.901 375.396 714.662 375.376 734.424C375.375 735.643 375.374 736.862 375.372 738.117C375.366 744.232 375.36 750.346 375.355 756.46C375.307 807.159 375.225 857.859 375.121 908.558C372.655 908.334 370.19 908.104 367.726 907.871C366.353 907.743 364.98 907.616 363.566 907.485C358.436 906.865 353.777 905.526 348.877 903.905C346.964 903.275 345.052 902.645 343.081 901.996C341.077 901.313 339.073 900.628 337.071 899.941C336.042 899.592 335.014 899.244 333.954 898.885C298.002 886.664 266.49 869.361 237.249 845.044C236.37 844.349 235.49 843.653 234.584 842.937C232.318 841.125 230.129 839.219 227.955 837.299C227.955 836.276 227.955 835.254 227.955 834.2C226.421 833.689 224.888 833.178 223.307 832.651C221.214 829.668 221.214 829.668 219.241 825.971C218.253 824.158 218.253 824.158 217.244 822.31C213.797 814.932 213.78 807.98 213.774 799.933C213.768 798.655 213.761 797.376 213.754 796.059C213.733 791.769 213.723 787.478 213.714 783.188C213.702 780.114 213.689 777.04 213.676 773.966C213.635 763.864 213.611 753.763 213.589 743.662C213.581 740.183 213.573 736.703 213.564 733.224C213.531 718.75 213.502 704.275 213.484 689.801C213.459 669.068 213.408 648.335 213.319 627.602C213.259 613.018 213.229 598.434 213.221 583.851C213.215 575.143 213.197 566.437 213.146 557.729C213.1 549.533 213.09 541.338 213.108 533.141C213.109 530.14 213.096 527.139 213.069 524.138C212.813 494.363 212.813 494.363 221.758 482.551C225.292 479.114 225.292 479.114 228.729 477.129C230.431 476.099 230.431 476.099 232.166 475.048C239.469 471.346 245.068 469.762 253.323 469.684Z" fill="#FEFEFE"/>
<path d="M607 714C607.66 714.33 608.32 714.66 609 715C608.375 716.938 608.375 716.938 607 719C603.875 719.75 603.875 719.75 601 720C603 718 605 716 607 714Z" fill="#195252"/>
</g>
<defs>
<clipPath id="clip0_10888_589">
<rect width="1024" height="1024" fill="white"/>
</clipPath>
</defs>
</svg>
